<svg width="200" height="200" viewBox="0 0 200 200" fill="none" xmlns="http://www.w3.org/2000/svg">
<rect width="200" height="200" rx="42.1871" fill="#00A5D8"/>
<path d="M63.3234 37.5001H82.691V93.9482H63.3234V37.5001Z" fill="white"/>
<path d="M155.149 88.321L160.129 105.705L42.4793 145.964L37.4995 128.58L155.149 88.321Z" fill="white"/>
<path d="M157.604 115.827L162.5 132.917L120.908 147.15L116.013 130.059L157.604 115.827Z" fill="white"/>
<path d="M100.461 142.108L103.112 159.781L53.0629 168.75L50.4116 151.078L100.461 142.108Z" fill="white"/>
<path d="M82.691 150.395H63.3233V122.171H82.691L82.691 150.395Z" fill="white"/>
<path d="M162.475 149.568L155.895 165.783L77.0669 127.574L83.6465 111.359L162.475 149.568Z" fill="white"/>
<path d="M37.4998 101.004H127.882V115.116H37.4998V101.004Z" fill="white"/>
<path d="M114.97 37.5001H134.338V86.8922L114.97 93.9482V37.5001Z" fill="white"/>
<path d="M140.794 37.5001H160.161V105.597L140.794 101.004V37.5001Z" fill="white"/>
<path d="M37.4998 71.9743C37.4998 68.5225 40.298 65.7243 43.7498 65.7243H102.265C105.716 65.7243 108.515 68.5225 108.515 71.9743V73.5863C108.515 77.0381 105.716 79.8363 102.265 79.8363H43.7498C40.298 79.8363 37.4998 77.0381 37.4998 73.5863V71.9743Z" fill="white"/>
<path d="M37.4998 44.5558H108.515V58.6678H37.4998V44.5558Z" fill="white"/>
<path d="M37.4998 72.78H56.8674V93.948H37.4998V72.78Z" fill="white"/>
<path d="M89.1466 72.78H108.514V108.06H89.1466V72.78Z" fill="white"/>
<path d="M40.7279 37.5001H53.6397L50.4117 44.5561L37.4998 44.5558L40.7279 37.5001Z" fill="white"/>
</svg>
